<?xml version="1.0" standalone="no"?>
<!DOCTYPE svg PUBLIC "-//W3C//DTD SVG 20010904//EN"
 "http://www.w3.org/TR/2001/REC-SVG-20010904/DTD/svg10.dtd">
<svg version="1.0" xmlns="http://www.w3.org/2000/svg"
 width="16.000000pt" height="16.000000pt" viewBox="0 0 16.000000 16.000000"
 preserveAspectRatio="xMidYMid meet">
<metadata>
Created by potrace 1.11, written by Peter Selinger 2001-2013
</metadata>
<g transform="translate(0.000000,16.000000) scale(0.002667,-0.002667)"
fill="#000000" stroke="none">
<path d="M2076 4165 c-3 -9 -6 -29 -5 -43 0 -24 1 -25 8 -7 l8 20 4 -20 c3
-13 -4 -27 -20 -40 -25 -20 -39 -20 -33 0 6 17 -9 75 -19 75 -16 0 -30 -52
-23 -84 l8 -31 7 30 c5 22 7 24 8 8 0 -12 6 -23 11 -25 6 -2 -8 -21 -30 -43
l-40 -39 6 30 c7 36 -22 102 -37 87 -18 -18 -21 -77 -6 -98 14 -18 15 -18 12
8 -2 15 1 27 5 27 5 0 8 -8 8 -17 0 -10 1 -23 3 -28 2 -6 -10 -29 -27 -53
l-31 -42 1 43 c0 27 -7 55 -18 72 -17 26 -19 27 -29 10 -15 -28 -13 -93 4
-110 13 -14 15 -11 12 22 l-2 38 13 -40 c13 -38 12 -42 -15 -79 -15 -21 -25
-44 -22 -52 3 -8 8 -12 12 -9 12 7 76 17 70 11 -3 -3 -23 -12 -45 -20 -34 -13
-36 -15 -14 -16 14 -1 34 -1 45 0 24 2 85 38 85 50 0 17 -80 20 -111 4 -17 -8
-33 -14 -35 -12 -5 5 45 74 51 71 3 -1 18 2 35 7 17 5 32 5 35 -1 4 -5 -2 -9
-12 -9 -10 0 -24 -4 -31 -9 -10 -6 -7 -10 12 -13 28 -6 106 25 106 41 0 16
-71 25 -102 13 -34 -13 -35 -9 -2 31 22 29 30 32 62 28 l37 -5 -30 -6 c-26 -6
-27 -8 -11 -15 22 -10 88 5 93 21 3 10 -50 37 -59 30 -1 -2 -16 -6 -33 -10
l-30 -7 34 32 c35 34 60 42 83 27 9 -5 5 -8 -11 -8 -19 0 -22 -3 -13 -12 14
-14 83 0 89 19 5 15 -56 27 -89 18 -18 -5 -15 1 17 29 27 25 41 32 47 23 4 -6
2 -15 -5 -19 -7 -4 1 -8 20 -8 33 0 55 17 31 24 -7 2 -22 7 -33 12 -11 4 -23
7 -26 6 -3 -1 -6 13 -7 30 -1 37 -17 57 -26 33z"/>
<path d="M3902 4164 c-5 -11 -6 -28 -1 -39 4 -11 8 -15 8 -10 1 6 6 3 11 -5 7
-12 10 -8 10 15 0 17 -4 36 -9 44 -7 11 -11 10 -19 -5z"/>
<path d="M2153 4158 c-12 -6 -24 -17 -28 -26 -5 -13 -3 -13 12 -1 15 12 16 12
10 -3 -9 -24 -2 -23 23 4 33 36 26 47 -17 26z"/>
<path d="M3810 4163 c0 -17 18 -35 28 -29 6 3 14 1 18 -5 5 -8 3 -9 -6 -4 -9
6 -11 4 -5 -4 5 -10 10 -10 19 -1 8 9 5 16 -13 31 -24 20 -41 25 -41 12z"/>
<path d="M3973 4140 c-15 -24 -17 -80 -3 -80 6 0 11 8 11 18 1 9 4 4 8 -13 l7
-30 8 31 c4 20 2 44 -6 63 -12 30 -14 31 -25 11z"/>
<path d="M3885 4100 c6 -9 4 -12 -6 -8 -19 7 -62 -10 -54 -22 3 -5 21 -10 38
-10 21 0 28 3 19 9 -11 7 -11 9 1 14 18 7 79 -41 70 -56 -3 -7 -2 -9 2 -4 5 4
21 -5 37 -20 28 -27 38 -51 16 -37 -17 11 -81 5 -93 -7 -15 -15 23 -39 62 -39
37 0 46 19 11 21 -15 1 -10 4 12 8 31 6 38 3 62 -24 35 -39 35 -46 -2 -33 -31
10 -100 3 -100 -10 0 -4 13 -15 29 -25 33 -20 86 -23 97 -5 5 7 2 9 -7 6 -8
-3 -23 -2 -34 2 -16 6 -12 8 17 11 33 4 40 1 67 -35 31 -40 34 -59 6 -36 -17
14 -109 20 -121 7 -9 -9 33 -46 61 -53 12 -3 37 -4 56 -1 l34 3 -33 9 c-40 10
-54 28 -15 20 15 -3 34 -7 41 -9 7 -1 25 -22 39 -45 14 -24 22 -42 17 -39 -62
30 -90 38 -116 34 -41 -6 -44 -12 -22 -37 22 -24 56 -40 97 -44 38 -4 44 12 7
20 -38 8 -47 23 -15 23 14 0 28 -4 31 -9 2 -4 10 -6 17 -3 8 3 22 -14 35 -41
25 -52 29 -80 7 -48 -9 13 -33 27 -54 33 -39 10 -88 8 -83 -3 1 -4 5 -13 8
-22 10 -24 69 -55 105 -55 l34 1 -38 20 c-47 25 -43 36 6 15 19 -8 37 -12 40
-10 5 5 35 -75 66 -176 11 -36 18 -49 15 -30 -4 19 -19 73 -34 119 l-29 84 24
46 c27 52 33 40 10 -17 l-16 -37 30 29 c33 32 53 108 32 129 -24 24 -81 -59
-81 -120 -1 -23 -5 -19 -24 26 -24 55 -23 83 3 128 13 23 14 8 1 -37 l-10 -34
27 27 c22 21 27 36 28 76 0 27 -3 53 -7 57 -23 22 -79 -79 -71 -130 4 -25 -3
-19 -38 39 -23 39 -52 84 -64 100 -21 28 -22 33 -9 70 l13 40 -4 -39 c-3 -32
-1 -36 10 -25 20 20 26 70 11 104 l-12 30 -19 -29 c-12 -19 -19 -45 -19 -73
l2 -43 -33 41 c-22 28 -30 48 -27 65 2 13 9 24 14 24 6 0 8 -7 4 -15 -3 -8 -1
-15 4 -15 14 0 22 55 11 83 -13 34 -17 34 -37 -4 -10 -20 -14 -43 -10 -63 l6
-30 -34 33 c-20 19 -33 38 -30 43 3 5 1 7 -4 6 -5 -2 -22 8 -38 22 -39 35 -60
47 -49 30z"/>
<path d="M3860 4025 c-10 -12 -7 -16 16 -25 15 -6 41 -8 58 -4 l31 8 -30 7
c-16 4 -22 7 -12 8 9 0 17 6 17 11 0 16 -66 12 -80 -5z"/>
<path d="M1766 3925 c-12 -34 -6 -93 13 -116 l19 -24 -4 40 c-3 26 -2 35 4 25
15 -24 22 -79 12 -85 -6 -3 -10 -11 -10 -18 0 -8 3 -8 11 0 31 31 18 143 -20
177 -17 16 -19 16 -25 1z"/>
<path d="M4202 3915 c-28 -35 -36 -67 -27 -102 l8 -28 7 33 c11 48 23 53 17 7
l-5 -40 19 24 c19 24 24 79 10 115 -7 17 -9 17 -29 -9z"/>
<path d="M1687 3820 c-9 -35 2 -91 24 -119 l21 -26 -7 45 c-8 52 1 49 20 -6
11 -33 10 -43 -6 -81 -22 -52 -17 -78 13 -62 23 12 58 20 58 13 0 -3 -19 -14
-42 -24 l-43 -20 38 0 c39 0 80 21 109 55 14 17 14 21 2 28 -23 13 -89 -2
-114 -25 -12 -11 -24 -18 -26 -15 -9 8 36 94 49 94 7 1 28 4 47 8 35 6 35 6
10 -9 -14 -8 -34 -16 -45 -16 -15 0 -17 -2 -6 -9 7 -5 21 -7 30 -6 9 2 26 4
38 4 25 1 92 55 81 66 -4 4 -25 8 -48 10 -30 2 -50 -4 -75 -21 -37 -25 -41
-24 -25 7 6 10 8 19 6 19 -3 0 -12 -12 -19 -27 l-14 -26 0 41 c0 29 -9 55 -27
82 -29 45 -41 50 -49 20z"/>
<path d="M1624 3706 c-11 -28 7 -91 33 -116 20 -20 24 -21 19 -7 -19 55 -15
68 8 24 23 -45 24 -50 10 -82 -20 -50 -16 -57 6 -9 14 32 16 50 9 85 -4 24 -8
47 -9 51 0 11 -51 68 -61 68 -5 0 -12 -6 -15 -14z"/>
<path d="M2990 3628 c10 -21 10 -21 -3 -5 -20 25 -46 21 -57 -9 -13 -32 -3
-72 23 -101 25 -28 59 -31 50 -5 -5 16 -5 16 8 -1 13 -16 17 -16 34 -4 42 31
9 137 -44 145 -20 3 -21 1 -11 -20z"/>
<path d="M1568 3603 c-2 -4 -3 -18 -2 -30 1 -13 2 -32 3 -43 1 -19 60 -95 68
-87 2 2 -3 17 -12 33 -22 42 -19 61 5 31 11 -14 20 -33 20 -42 0 -10 5 -13 12
-9 8 5 9 2 4 -11 -11 -29 -27 -107 -23 -112 7 -7 35 122 29 132 -4 6 -8 19 -9
29 -6 34 -27 69 -60 93 -17 13 -33 20 -35 16z"/>
<path d="M4387 3577 c-35 -32 -62 -90 -50 -110 3 -5 15 8 26 29 11 21 22 33
24 26 3 -7 -5 -29 -17 -49 l-21 -36 23 15 c12 8 30 26 40 39 19 25 31 106 18
114 -4 2 -23 -10 -43 -28z"/>
<path d="M1764 3514 c-38 -13 -82 -49 -73 -59 3 -3 20 2 38 11 42 21 51 11 12
-12 -38 -22 -40 -34 -4 -28 34 6 53 17 80 46 45 49 21 68 -53 42z"/>
<path d="M4166 3520 c-17 -6 -16 -10 13 -43 19 -21 48 -41 69 -46 31 -9 54 -8
41 2 -63 47 -65 50 -39 42 14 -4 29 -11 35 -16 17 -16 26 -9 15 11 -18 34 -96
64 -134 50z"/>
<path d="M2857 3478 c-9 -7 -21 -26 -27 -42 -18 -50 18 -121 51 -100 5 3 9 0
9 -5 0 -18 20 -12 45 14 33 32 34 91 4 124 -16 16 -24 20 -29 11 -5 -9 -9 -9
-14 -1 -9 14 -18 14 -39 -1z"/>
<path d="M3060 3451 c-39 -38 -43 -97 -7 -111 12 -5 18 -9 12 -10 -5 0 -4 -4
3 -9 52 -33 135 74 97 125 -13 17 -14 17 -15 2 0 -9 -4 -19 -8 -22 -4 -2 -8 8
-7 22 0 40 -37 42 -75 3z m50 -54 c0 -2 -12 -14 -27 -28 l-28 -24 24 28 c23
25 31 32 31 24z"/>
<path d="M1514 3421 c5 -47 18 -73 52 -100 32 -26 53 -28 32 -3 -22 24 -40 62
-31 62 4 0 21 -18 36 -40 27 -38 28 -42 18 -97 -6 -32 -12 -93 -13 -135 -2
-43 -6 -78 -10 -78 -5 0 -8 6 -8 14 0 26 -51 76 -91 87 -21 7 -41 10 -44 7 -9
-9 22 -72 47 -95 12 -12 37 -27 53 -33 l30 -11 -34 35 c-45 46 -36 54 14 13
39 -31 40 -34 43 -102 l3 -70 -21 33 c-24 39 -75 72 -112 72 -32 0 -33 -2 -14
-38 22 -41 58 -71 96 -78 l35 -6 -25 18 c-27 20 -41 36 -35 42 6 6 80 -51 81
-63 1 -5 5 -30 8 -55 6 -41 22 -113 42 -180 l7 -25 -23 24 c-59 61 -186 71
-137 11 28 -36 71 -60 106 -60 l36 0 -40 25 c-46 28 -33 33 24 8 31 -13 41
-25 50 -54 27 -90 150 -307 226 -398 22 -26 22 -26 88 -97 l47 -52 -45 6 c-45
5 -125 -20 -125 -39 0 -12 67 -39 95 -39 28 0 85 20 85 30 0 4 -21 6 -47 4
-32 -3 -43 0 -36 7 5 5 26 11 46 12 19 1 33 5 30 10 -9 14 8 6 35 -17 15 -13
41 -35 57 -49 l30 -26 -35 8 c-38 8 -77 -2 -124 -34 l-29 -19 29 -13 c43 -18
95 -15 132 7 17 11 32 21 32 24 0 2 -19 0 -42 -4 -49 -9 -59 -6 -30 9 44 24
85 15 157 -33 38 -25 73 -46 77 -46 13 0 9 11 -12 28 -20 18 -45 102 -29 102
5 0 15 -21 21 -46 l13 -46 6 32 c9 41 -4 87 -36 125 -21 25 -26 28 -35 15 -16
-25 -11 -93 10 -133 l20 -37 -55 37 c-35 24 -55 44 -56 58 0 11 -2 32 -4 48
-6 43 14 21 21 -24 8 -49 24 -33 24 25 0 37 -35 116 -52 116 -24 0 -40 -108
-20 -134 31 -39 17 -44 -25 -8 -45 37 -48 43 -51 93 -2 39 0 50 8 39 5 -8 10
-28 10 -45 0 -40 19 -19 25 29 4 26 -2 50 -19 83 l-23 47 -17 -33 c-20 -38
-23 -99 -7 -129 27 -50 8 -34 -117 104 -50 55 -53 62 -47 98 9 61 28 82 21 24
-7 -57 7 -63 25 -10 15 41 14 95 -3 126 -10 19 -11 19 -34 -9 -26 -33 -38 -82
-28 -122 l7 -28 -20 25 c-32 41 -63 100 -53 100 6 0 10 8 10 18 0 20 17 49 24
41 3 -3 2 -20 -3 -37 -12 -40 3 -42 24 -3 20 40 25 91 11 125 l-12 29 -28 -37
c-16 -22 -31 -57 -35 -84 l-7 -47 -26 54 -27 54 21 44 c11 23 22 43 25 43 8 0
-10 -75 -21 -82 -8 -6 -8 -8 0 -8 27 0 65 66 64 112 0 64 -2 68 -21 57 -31
-16 -69 -81 -70 -119 l-1 -35 -24 54 c-25 54 -25 56 -8 93 24 53 48 73 32 27
-6 -19 -15 -40 -21 -46 -6 -8 -6 -13 0 -13 12 0 47 38 62 67 11 22 16 103 5
103 -3 0 -19 -10 -36 -21 -33 -24 -58 -73 -59 -116 0 -20 -5 -11 -19 32 -11
33 -20 65 -20 71 0 6 16 28 36 50 l36 39 -25 -47 c-22 -41 -23 -47 -7 -38 28
15 70 69 71 93 1 12 3 32 4 45 3 27 -2 27 -37 4 -38 -25 -68 -66 -70 -96 -3
-39 -16 -18 -23 39 -4 28 -9 53 -11 56 -2 3 -4 36 -5 73 -2 66 -1 69 35 104
41 42 49 29 10 -17 -21 -25 -22 -30 -7 -24 39 14 65 38 84 75 27 53 23 67 -18
56 -40 -10 -93 -62 -93 -91 0 -16 -3 -18 -9 -9 -9 16 -5 109 10 205 8 52 8 71
-1 82 -7 8 -9 15 -5 15 4 0 -3 17 -15 37 -22 37 -48 62 -82 75 -15 6 -17 2
-14 -31z"/>
<path d="M4447 3437 c-48 -27 -92 -114 -83 -161 4 -17 9 -62 12 -101 3 -38 7
-85 8 -103 4 -40 -9 -52 -18 -17 -8 32 -47 66 -92 82 -29 10 -34 10 -34 -4 0
-48 65 -123 107 -123 16 1 16 2 2 10 -9 5 -25 22 -35 37 l-18 28 25 -16 c44
-29 65 -71 61 -122 -2 -26 -9 -47 -15 -47 -6 0 -7 3 -4 7 17 16 -55 92 -101
105 -22 6 -23 5 -16 -25 11 -51 33 -86 67 -107 35 -22 47 -19 23 5 -9 9 -21
25 -26 36 -17 31 6 23 31 -11 12 -16 26 -27 30 -24 4 2 6 -4 4 -14 -2 -11 -6
-35 -9 -53 -12 -76 -26 -136 -39 -174 l-14 -39 -6 41 c-5 30 -18 52 -44 78
-20 19 -40 35 -45 35 -12 0 -10 -78 3 -103 14 -27 50 -67 60 -67 4 0 -2 18
-13 41 -26 55 -16 61 17 9 l26 -42 -23 -66 c-13 -36 -24 -59 -25 -51 -9 68
-18 94 -45 125 -35 40 -47 35 -50 -22 -1 -40 12 -74 40 -106 23 -27 33 -21 16
10 -7 15 -14 36 -13 47 0 13 8 4 24 -26 l24 -47 -27 -52 -27 -53 -6 41 c-3 22
-18 59 -33 83 -25 37 -30 40 -38 25 -18 -32 -16 -90 3 -128 21 -41 45 -62 36
-32 -4 11 -9 33 -12 49 -6 29 -6 29 9 11 9 -11 16 -28 16 -37 0 -10 5 -19 11
-21 11 -4 -96 -163 -139 -207 -20 -21 -23 -22 -17 -6 12 30 7 92 -10 125 -19
37 -29 38 -44 3 -20 -50 -18 -110 4 -139 14 -18 14 -18 13 6 -2 45 2 73 8 67
4 -4 8 -26 9 -50 2 -39 -2 -49 -42 -93 -25 -27 -42 -40 -38 -29 15 37 17 93 5
129 -13 42 -24 45 -44 14 -25 -38 -30 -101 -12 -134 l15 -29 1 35 c1 58 20 73
20 16 0 -44 -4 -52 -42 -87 -52 -47 -61 -49 -42 -9 21 41 10 140 -15 140 -16
0 -51 -80 -51 -116 0 -58 16 -74 24 -25 3 22 10 42 15 45 5 4 8 -2 6 -11 -2
-10 -4 -32 -4 -49 -1 -27 -9 -37 -49 -63 -27 -17 -52 -31 -55 -31 -3 0 3 15
14 34 14 25 19 49 18 85 -2 28 -6 51 -10 51 -5 0 -19 -11 -33 -25 -31 -31 -47
-86 -36 -122 5 -16 9 -26 10 -23 1 3 3 12 5 20 2 8 8 26 14 40 10 22 11 19 7
-20 -4 -34 -12 -50 -33 -67 -21 -17 -24 -23 -11 -23 9 0 20 4 23 10 7 11 60 2
95 -17 23 -14 22 -14 -24 -8 -44 6 -48 5 -37 -9 20 -24 78 -39 127 -31 24 3
44 8 44 11 0 3 -12 16 -26 29 -34 31 -88 49 -127 41 -27 -5 -23 -1 28 31 33
21 65 37 70 36 64 -9 85 -15 80 -22 -2 -5 -23 -5 -45 -1 -47 9 -49 6 -15 -16
33 -22 79 -27 127 -13 l40 10 -24 21 c-44 39 -95 50 -148 33 -15 -5 0 12 39
44 36 28 67 48 70 44 3 -5 12 -8 19 -9 6 -1 21 -2 32 -2 11 -1 20 -6 20 -11 0
-5 -16 -8 -35 -6 -42 2 -46 -11 -7 -26 32 -12 101 -4 127 15 17 12 17 14 -10
32 -20 13 -47 19 -85 19 l-57 0 77 85 c89 100 149 185 205 291 22 43 45 78 50
78 6 1 25 6 44 11 51 14 51 3 0 -20 -24 -11 -41 -20 -36 -21 48 -8 98 7 136
43 l34 32 -24 8 c-38 15 -106 0 -135 -29 l-26 -26 7 24 c25 77 46 110 80 124
52 23 65 17 22 -9 -36 -22 -40 -35 -9 -30 6 1 19 2 27 3 20 1 95 70 95 87 0
34 -113 5 -152 -38 -18 -21 -19 -21 -13 -3 3 11 11 41 17 66 9 39 18 51 48 68
21 12 41 21 44 21 14 0 -7 -22 -38 -41 -27 -17 -28 -19 -9 -19 50 0 132 63
133 101 0 13 -7 15 -37 9 -50 -9 -77 -24 -103 -57 l-22 -28 6 40 c18 125 25
235 15 235 -5 0 -9 5 -9 11 0 5 4 8 9 5 5 -4 23 5 39 19 16 14 36 25 43 25 9
0 10 -3 4 -8 -5 -4 -21 -20 -34 -35 l-25 -27 31 10 c39 14 68 45 88 94 l16 39
-32 -7 c-45 -9 -77 -31 -101 -72 -11 -19 -21 -34 -21 -34 -1 0 -3 35 -5 78 -1
42 -7 103 -13 134 -9 52 -8 60 13 92 27 42 56 59 37 23 -6 -12 -18 -30 -27
-39 -23 -27 2 -21 37 8 29 24 56 89 49 119 -2 11 -11 9 -41 -8z"/>
<path d="M1724 3386 c-31 -14 -74 -60 -74 -80 0 -8 2 -8 8 0 7 11 65 44 78 44
4 0 -10 -13 -31 -30 -34 -27 -36 -30 -14 -30 33 0 85 39 103 77 l16 33 -28 0
c-15 -1 -41 -7 -58 -14z"/>
<path d="M4190 3396 c0 -14 45 -75 65 -87 11 -7 35 -16 53 -20 l33 -7 -38 34
-38 35 45 -22 44 -21 -15 23 c-25 37 -62 60 -107 66 -23 3 -42 3 -42 -1z"/>
<path d="M1474 3275 c13 -53 26 -74 61 -100 45 -35 56 -26 21 16 -36 42 -24
51 14 11 25 -27 30 -29 30 -13 0 25 -44 77 -81 96 -41 22 -52 19 -45 -10z"/>
<path d="M4469 3279 c-38 -22 -69 -65 -69 -95 0 -13 7 -10 30 16 38 42 48 35
15 -10 -31 -42 -31 -44 3 -26 33 17 58 44 65 71 3 11 8 30 12 43 8 28 -8 28
-56 1z"/>
<path d="M4220 3269 c0 -4 7 -23 16 -41 18 -39 52 -66 97 -78 l32 -9 -25 22
c-14 12 -32 31 -40 41 -15 19 -15 19 18 1 17 -11 32 -23 32 -27 0 -4 5 -8 10
-8 17 0 -18 58 -45 76 -30 19 -95 35 -95 23z"/>
<path d="M1694 3251 c-35 -21 -64 -58 -64 -80 0 -13 2 -13 13 0 14 18 67 52
67 44 0 -4 -17 -22 -37 -41 -36 -34 -34 -35 27 -13 24 9 62 54 76 92 9 24 -41
23 -82 -2z"/>
<path d="M1721 3004 c-37 -16 -68 -47 -82 -82 -16 -42 -9 -48 17 -14 31 39 53
43 26 5 -36 -53 -36 -56 -4 -39 17 9 38 26 47 38 15 22 39 97 33 103 -2 2 -18
-3 -37 -11z"/>
<path d="M4498 2974 c-28 -9 -56 -26 -72 -45 -34 -40 -33 -55 2 -31 50 35 56
36 36 9 -10 -15 -22 -27 -25 -27 -3 0 -14 -6 -25 -14 -17 -13 -15 -14 19 -6
46 10 84 43 104 89 8 18 13 34 11 36 -2 1 -24 -4 -50 -11z"/>
<path d="M4234 2848 c9 -53 31 -91 67 -112 l28 -16 -26 47 c-26 47 -26 47 -4
28 13 -11 27 -29 30 -39 6 -15 9 -16 13 -5 10 27 -23 87 -63 113 -21 14 -41
26 -45 26 -4 0 -4 -19 0 -42z"/>
<path d="M3041 2809 c-27 -36 -51 -46 -128 -54 -102 -11 -141 -44 -81 -70 28
-11 47 -12 100 -3 75 13 98 8 98 -24 1 -22 1 -22 15 -4 8 11 15 27 15 37 0 28
-7 29 -159 16 -13 -1 -26 3 -28 9 -3 8 18 14 55 19 72 8 116 33 130 74 14 39
11 39 -17 0z"/>
<path d="M1465 2822 c-3 -3 2 -17 12 -31 32 -51 80 -81 126 -81 19 0 18 2 -9
19 -31 19 -52 41 -38 41 4 0 22 -9 41 -21 l33 -21 -10 24 c-6 12 -22 31 -35
41 -25 18 -110 39 -120 29z"/>
<path d="M2810 2619 c0 -3 -39 -7 -87 -7 -49 0 -94 0 -100 -1 -9 -1 -11 -13
-8 -38 25 -176 72 -259 175 -307 39 -18 64 -21 175 -21 111 0 137 3 176 21 93
43 146 126 166 262 13 83 6 90 -86 85 -39 -1 -71 1 -71 5 0 5 -76 8 -170 8
-93 1 -170 -3 -170 -7z"/>
<path d="M3328 2584 c-11 -10 4 -45 24 -55 28 -15 19 -50 -18 -74 -29 -18 -62
-75 -45 -75 14 0 85 51 103 73 10 12 18 39 18 60 0 32 -5 40 -32 57 -35 21
-42 23 -50 14z"/>
<path d="M1552 2512 c-10 -7 -6 -16 17 -38 36 -33 85 -52 119 -46 21 4 19 7
-19 23 -52 24 -46 35 9 16 32 -11 39 -11 35 -1 -13 36 -128 68 -161 46z"/>
<path d="M4056 2369 c-8 -18 -12 -40 -11 -48 2 -9 4 -26 4 -37 1 -12 9 -32 20
-45 l18 -23 -4 50 c-3 27 -2 45 3 41 9 -9 15 -34 15 -59 0 -26 19 -22 21 5 1
12 2 31 3 42 2 22 -29 90 -45 100 -6 4 -17 -8 -24 -26z"/>
<path d="M1640 2374 c-8 -3 -21 -7 -28 -10 -9 -2 -7 -9 7 -23 31 -31 77 -51
115 -51 35 0 63 20 29 20 -10 1 -31 7 -48 15 -30 15 -30 15 18 9 53 -6 58 -2
22 22 -27 17 -89 27 -115 18z"/>
<path d="M4264 2366 c-54 -24 -53 -38 2 -31 l49 6 -34 -16 c-18 -8 -40 -15
-48 -15 -8 0 -11 -4 -8 -10 11 -17 79 -11 114 11 45 27 63 46 52 53 -23 14
-98 15 -127 2z"/>
<path d="M1976 2262 c-19 -37 -25 -92 -13 -119 12 -27 27 -31 21 -5 -3 9 -1
28 5 42 l10 25 2 -30 c0 -16 1 -38 0 -47 -3 -27 8 -21 20 10 14 36 14 86 -1
123 -15 36 -26 37 -44 1z"/>
<path d="M1723 2239 c-45 -13 -48 -24 -10 -48 39 -24 79 -32 118 -24 38 7 37
17 -3 20 -17 1 -36 7 -42 14 -8 8 2 9 37 5 38 -4 45 -2 34 8 -26 27 -88 38
-134 25z"/>
<path d="M4200 2243 c-25 -7 -60 -26 -60 -32 0 -3 21 -5 48 -3 35 2 43 0 32
-7 -8 -6 -27 -11 -42 -11 -30 0 -49 -19 -21 -21 75 -5 96 -1 132 25 30 22 31
25 14 34 -22 12 -82 20 -103 15z"/>
<path d="M2603 2213 c16 -16 47 -18 362 -18 315 0 346 2 362 18 16 16 -1 17
-362 17 -361 0 -378 -1 -362 -17z"/>
<path d="M1811 2111 c-36 -10 -36 -28 -1 -49 20 -13 46 -19 76 -17 53 2 86 25
39 26 -17 0 -39 4 -50 9 -15 6 -5 9 35 10 53 1 54 1 30 15 -26 15 -88 18 -129
6z"/>
<path d="M4060 2107 c-23 -10 -21 -11 30 -17 60 -5 48 -19 -18 -21 l-37 -1 34
-14 c49 -22 146 2 146 36 0 27 -107 39 -155 17z"/>
<path d="M2181 1810 c-35 -22 -61 -45 -61 -53 0 -10 80 -19 109 -12 28 6 71
36 71 49 0 4 -9 2 -20 -4 -12 -6 -33 -10 -48 -8 -23 3 -21 5 20 18 54 16 54
21 1 27 -27 2 -48 -3 -72 -17z"/>
</g>
</svg>
